<svg xmlns="http://www.w3.org/2000/svg" style="display:none">
<symbol id="notebook" viewBox="0 0 256 256" fill="currentColor"><path d="M184,112a8,8,0,0,1-8,8H112a8,8,0,0,1,0-16h64A8,8,0,0,1,184,112Zm-8,24H112a8,8,0,0,0,0,16h64a8,8,0,0,0,0-16Zm48-88V208a16,16,0,0,1-16,16H48a16,16,0,0,1-16-16V48A16,16,0,0,1,48,32H208A16,16,0,0,1,224,48ZM48,208H72V48H48Zm160,0V48H88V208H208Z"/></symbol>
<symbol id="chart-line-up" viewBox="0 0 256 256" fill="currentColor"><path d="M232,208a8,8,0,0,1-8,8H32a8,8,0,0,1-8-8V48a8,8,0,0,1,16,0V156.69l50.34-50.35a8,8,0,0,1,11.32,0L128,132.69,180.69,80H160a8,8,0,0,1,0-16h40a8,8,0,0,1,8,8v40a8,8,0,0,1-16,0V91.31l-58.34,58.35a8,8,0,0,1-11.32,0L96,123.31l-56,56V200H224A8,8,0,0,1,232,208Z"/></symbol>
<symbol id="plus" viewBox="0 0 256 256" fill="currentColor"><path d="M224,128a8,8,0,0,1-8,8H136v80a8,8,0,0,1-16,0V136H40a8,8,0,0,1,0-16h80V40a8,8,0,0,1,16,0v80h80A8,8,0,0,1,224,128Z"/></symbol>
<symbol id="drop" viewBox="0 0 256 256" fill="currentColor"><path d="M174,47.75a254.19,254.19,0,0,0-41.45-38.3,8,8,0,0,0-9.18,0A254.19,254.19,0,0,0,82,47.75C54.51,79.32,40,112.6,40,144a88,88,0,0,0,176,0C216,112.6,201.49,79.32,174,47.75ZM128,216a72.08,72.08,0,0,1-72-72c0-57.23,55.47-105,72-118,16.53,13,72,60.75,72,118A72.08,72.08,0,0,1,128,216Zm55.89-62.66a57.6,57.6,0,0,1-46.56,46.55A8.75,8.75,0,0,1,136,200a8,8,0,0,1-1.32-15.89c16.57-2.79,30.63-16.85,33.44-33.45a8,8,0,0,1,15.78,2.68Z"/></symbol>
<symbol id="user-circle" viewBox="0 0 256 256" fill="currentColor"><path d="M128,24A104,104,0,1,0,232,128,104.11,104.11,0,0,0,128,24ZM74.08,197.5a64,64,0,0,1,107.84,0,87.83,87.83,0,0,1-107.84,0ZM96,120a32,32,0,1,1,32,32A32,32,0,0,1,96,120Zm97.76,66.41a79.66,79.66,0,0,0-36.06-28.75,48,48,0,1,0-59.4,0,79.66,79.66,0,0,0-36.06,28.75,88,88,0,1,1,131.52,0Z"/></symbol>
<symbol id="barcode" viewBox="0 0 256 256" fill="currentColor"><path d="M232,48V88a8,8,0,0,1-16,0V56H184a8,8,0,0,1,0-16h40A8,8,0,0,1,232,48ZM72,200H40V168a8,8,0,0,0-16,0v40a8,8,0,0,0,8,8H72a8,8,0,0,0,0-16Zm152-40a8,8,0,0,0-8,8v32H184a8,8,0,0,0,0,16h40a8,8,0,0,0,8-8V168A8,8,0,0,0,224,160ZM32,96a8,8,0,0,0,8-8V56H72a8,8,0,0,0,0-16H32a8,8,0,0,0-8,8V88A8,8,0,0,0,32,96ZM80,80a8,8,0,0,0-8,8v80a8,8,0,0,0,16,0V88A8,8,0,0,0,80,80Zm104,88V88a8,8,0,0,0-16,0v80a8,8,0,0,0,16,0ZM144,80a8,8,0,0,0-8,8v80a8,8,0,0,0,16,0V88A8,8,0,0,0,144,80Zm-32,0a8,8,0,0,0-8,8v80a8,8,0,0,0,16,0V88A8,8,0,0,0,112,80Z"/></symbol>
<symbol id="magnifying-glass" viewBox="0 0 256 256" fill="currentColor"><path d="M229.66,218.34l-50.07-50.06a88.11,88.11,0,1,0-11.31,11.31l50.06,50.07a8,8,0,0,0,11.32-11.32ZM40,112a72,72,0,1,1,72,72A72.08,72.08,0,0,1,40,112Z"/></symbol>
<symbol id="bookmark-simple" viewBox="0 0 256 256" fill="currentColor"><path d="M184,32H72A16,16,0,0,0,56,48V224a8,8,0,0,0,12.24,6.78L128,193.43l59.77,37.35A8,8,0,0,0,200,224V48A16,16,0,0,0,184,32Zm0,177.57-51.77-32.35a8,8,0,0,0-8.48,0L72,209.57V48H184Z"/></symbol>
<symbol id="trash" viewBox="0 0 256 256" fill="currentColor"><path d="M216,48H176V40a24,24,0,0,0-24-24H104A24,24,0,0,0,80,40v8H40a8,8,0,0,0,0,16h8V208a16,16,0,0,0,16,16H192a16,16,0,0,0,16-16V64h8a8,8,0,0,0,0-16ZM96,40a8,8,0,0,1,8-8h48a8,8,0,0,1,8,8v8H96Zm96,168H64V64H192ZM112,104v64a8,8,0,0,1-16,0V104a8,8,0,0,1,16,0Zm48,0v64a8,8,0,0,1-16,0V104a8,8,0,0,1,16,0Z"/></symbol>
<symbol id="pencil-simple" viewBox="0 0 256 256" fill="currentColor"><path d="M227.31,73.37,182.63,28.68a16,16,0,0,0-22.63,0L36.69,152A15.86,15.86,0,0,0,32,163.31V208a16,16,0,0,0,16,16H92.69A15.86,15.86,0,0,0,104,219.31L227.31,96a16,16,0,0,0,0-22.63ZM92.69,208H48V163.31l88-88L180.69,120ZM192,108.68,147.31,64l24-24L216,84.68Z"/></symbol>
<symbol id="caret-left" viewBox="0 0 256 256" fill="currentColor"><path d="M165.66,202.34a8,8,0,0,1-11.32,11.32l-80-80a8,8,0,0,1,0-11.32l80-80a8,8,0,0,1,11.32,11.32L91.31,128Z"/></symbol>
<symbol id="caret-right" viewBox="0 0 256 256" fill="currentColor"><path d="M181.66,133.66l-80,80a8,8,0,0,1-11.32-11.32L164.69,128,90.34,53.66a8,8,0,0,1,11.32-11.32l80,80A8,8,0,0,1,181.66,133.66Z"/></symbol>
<symbol id="flame" viewBox="0 0 256 256" fill="currentColor"><path d="M173.79,51.48a221.25,221.25,0,0,0-41.67-34.34,8,8,0,0,0-8.24,0A221.25,221.25,0,0,0,82.21,51.48C54.59,80.48,40,112.47,40,144a88,88,0,0,0,176,0C216,112.47,201.41,80.48,173.79,51.48ZM96,184c0-27.67,22.53-47.28,32-54.3,9.48,7,32,26.63,32,54.3a32,32,0,0,1-64,0Zm77.27,15.93A47.8,47.8,0,0,0,176,184c0-44-42.09-69.79-43.88-70.86a8,8,0,0,0-8.24,0C122.09,114.21,80,140,80,184a47.8,47.8,0,0,0,2.73,15.93A71.88,71.88,0,0,1,56,144c0-34.41,20.4-63.15,37.52-81.19A216.21,216.21,0,0,1,128,33.54a215.77,215.77,0,0,1,34.48,29.27C193.49,95.5,200,125,200,144A71.88,71.88,0,0,1,173.27,199.93Z"/></symbol>
<symbol id="barbell" viewBox="0 0 256 256" fill="currentColor"><path d="M248,120h-8V88a16,16,0,0,0-16-16H208V64a16,16,0,0,0-16-16H168a16,16,0,0,0-16,16v56H104V64A16,16,0,0,0,88,48H64A16,16,0,0,0,48,64v8H32A16,16,0,0,0,16,88v32H8a8,8,0,0,0,0,16h8v32a16,16,0,0,0,16,16H48v8a16,16,0,0,0,16,16H88a16,16,0,0,0,16-16V136h48v56a16,16,0,0,0,16,16h24a16,16,0,0,0,16-16v-8h16a16,16,0,0,0,16-16V136h8a8,8,0,0,0,0-16ZM32,168V88H48v80Zm56,24H64V64H88V192Zm104,0H168V64h24V175.82c0,.06,0,.12,0,.18s0,.12,0,.18V192Zm32-24H208V88h16Z"/></symbol>
<symbol id="person-simple-walk" viewBox="0 0 256 256" fill="currentColor"><path d="M152,80a32,32,0,1,0-32-32A32,32,0,0,0,152,80Zm0-48a16,16,0,1,1-16,16A16,16,0,0,1,152,32Zm64,112a8,8,0,0,1-8,8c-35.31,0-52.95-17.81-67.12-32.12-2.74-2.77-5.36-5.4-8-7.84l-13.43,30.88,37.2,26.57A8,8,0,0,1,160,176v56a8,8,0,0,1-16,0V180.12l-31.07-22.2L79.34,235.19A8,8,0,0,1,72,240a7.84,7.84,0,0,1-3.19-.67,8,8,0,0,1-4.15-10.52l54.08-124.37c-9.31-1.65-20.92,1.2-34.7,8.58a163.88,163.88,0,0,0-30.57,21.77,8,8,0,0,1-10.95-11.66c2.5-2.35,61.69-57.23,98.72-25.08,3.83,3.32,7.48,7,11,10.57C166.19,122.7,179.36,136,208,136A8,8,0,0,1,216,144Z"/></symbol>
<symbol id="x" viewBox="0 0 256 256" fill="currentColor"><path d="M205.66,194.34a8,8,0,0,1-11.32,11.32L128,139.31,61.66,205.66a8,8,0,0,1-11.32-11.32L116.69,128,50.34,61.66A8,8,0,0,1,61.66,50.34L128,116.69l66.34-66.35a8,8,0,0,1,11.32,11.32L139.31,128Z"/></symbol>
<symbol id="check" viewBox="0 0 256 256" fill="currentColor"><path d="M229.66,77.66l-128,128a8,8,0,0,1-11.32,0l-56-56a8,8,0,0,1,11.32-11.32L96,188.69,218.34,66.34a8,8,0,0,1,11.32,11.32Z"/></symbol>
<symbol id="download-simple" viewBox="0 0 256 256" fill="currentColor"><path d="M224,144v64a8,8,0,0,1-8,8H40a8,8,0,0,1-8-8V144a8,8,0,0,1,16,0v56H208V144a8,8,0,0,1,16,0Zm-101.66,5.66a8,8,0,0,0,11.32,0l40-40a8,8,0,0,0-11.32-11.32L136,124.69V32a8,8,0,0,0-16,0v92.69L93.66,98.34a8,8,0,0,0-11.32,11.32Z"/></symbol>
<symbol id="upload-simple" viewBox="0 0 256 256" fill="currentColor"><path d="M224,144v64a8,8,0,0,1-8,8H40a8,8,0,0,1-8-8V144a8,8,0,0,1,16,0v56H208V144a8,8,0,0,1,16,0ZM93.66,77.66,120,51.31V144a8,8,0,0,0,16,0V51.31l26.34,26.35a8,8,0,0,0,11.32-11.32l-40-40a8,8,0,0,0-11.32,0l-40,40A8,8,0,0,0,93.66,77.66Z"/></symbol>
<symbol id="bowl-food" viewBox="0 0 256 256" fill="currentColor"><path d="M224,104h-8.37a88,88,0,0,0-175.26,0H32a8,8,0,0,0-8,8,104.35,104.35,0,0,0,56,92.28V208a16,16,0,0,0,16,16h64a16,16,0,0,0,16-16v-3.72A104.35,104.35,0,0,0,232,112,8,8,0,0,0,224,104Zm-24.46,0H148.12a71.84,71.84,0,0,1,41.27-29.57A71.45,71.45,0,0,1,199.54,104ZM173.48,56.23q2.75,2.25,5.27,4.75a87.92,87.92,0,0,0-49.15,43H100.1A72.26,72.26,0,0,1,168,56C169.83,56,171.66,56.09,173.48,56.23ZM128,40a71.87,71.87,0,0,1,19,2.57A88.36,88.36,0,0,0,83.33,104H56.46A72.08,72.08,0,0,1,128,40Zm36.66,152A8,8,0,0,0,160,199.3V208H96v-8.7A8,8,0,0,0,91.34,192a88.29,88.29,0,0,1-51-72H215.63A88.29,88.29,0,0,1,164.66,192Z"/></symbol>
<symbol id="scales" viewBox="0 0 256 256" fill="currentColor"><path d="M239.43,133l-32-80h0a8,8,0,0,0-9.16-4.84L136,62V40a8,8,0,0,0-16,0V65.58L54.26,80.19A8,8,0,0,0,48.57,85h0v.06L16.57,165a7.92,7.92,0,0,0-.57,3c0,23.31,24.54,32,40,32s40-8.69,40-32a7.92,7.92,0,0,0-.57-3L66.92,93.77,120,82V208H104a8,8,0,0,0,0,16h48a8,8,0,0,0,0-16H136V78.42L187,67.1,160.57,133a7.92,7.92,0,0,0-.57,3c0,23.31,24.54,32,40,32s40-8.69,40-32A7.92,7.92,0,0,0,239.43,133ZM56,184c-7.53,0-22.76-3.61-23.93-14.64L56,109.54l23.93,59.82C78.76,180.39,63.53,184,56,184Zm144-32c-7.53,0-22.76-3.61-23.93-14.64L200,77.54l23.93,59.82C222.76,148.39,207.53,152,200,152Z"/></symbol>
<symbol id="minus" viewBox="0 0 256 256" fill="currentColor"><path d="M224,128a8,8,0,0,1-8,8H40a8,8,0,0,1,0-16H216A8,8,0,0,1,224,128Z"/></symbol>
<symbol id="camera" viewBox="0 0 256 256" fill="currentColor"><path d="M208,56H180.28L166.65,35.56A8,8,0,0,0,160,32H96a8,8,0,0,0-6.65,3.56L75.71,56H48A24,24,0,0,0,24,80V192a24,24,0,0,0,24,24H208a24,24,0,0,0,24-24V80A24,24,0,0,0,208,56Zm8,136a8,8,0,0,1-8,8H48a8,8,0,0,1-8-8V80a8,8,0,0,1,8-8H80a8,8,0,0,0,6.66-3.56L100.28,48h55.43l13.63,20.44A8,8,0,0,0,176,72h32a8,8,0,0,1,8,8ZM128,88a44,44,0,1,0,44,44A44.05,44.05,0,0,0,128,88Zm0,72a28,28,0,1,1,28-28A28,28,0,0,1,128,160Z"/></symbol>
<symbol id="arrow-counter-clockwise" viewBox="0 0 256 256" fill="currentColor"><path d="M224,128a96,96,0,0,1-94.71,96H128A95.38,95.38,0,0,1,62.1,197.8a8,8,0,0,1,11-11.63A80,80,0,1,0,71.43,71.39a3.07,3.07,0,0,1-.26.25L44.59,96H72a8,8,0,0,1,0,16H24a8,8,0,0,1-8-8V56a8,8,0,0,1,16,0V85.8L60.25,60A96,96,0,0,1,224,128Z"/></symbol>
<symbol id="gear-six" viewBox="0 0 256 256" fill="currentColor"><path d="M128,80a48,48,0,1,0,48,48A48.05,48.05,0,0,0,128,80Zm0,80a32,32,0,1,1,32-32A32,32,0,0,1,128,160Zm109.94-52.79a8,8,0,0,0-3.89-5.4l-29.83-17-.12-33.62a8,8,0,0,0-2.83-6.08,111.91,111.91,0,0,0-36.72-20.67,8,8,0,0,0-6.46.59L128,41.85,97.88,25a8,8,0,0,0-6.47-.6A112.1,112.1,0,0,0,54.73,45.15a8,8,0,0,0-2.83,6.07l-.15,33.65-29.83,17a8,8,0,0,0-3.89,5.4,106.47,106.47,0,0,0,0,41.56,8,8,0,0,0,3.89,5.4l29.83,17,.12,33.62a8,8,0,0,0,2.83,6.08,111.91,111.91,0,0,0,36.72,20.67,8,8,0,0,0,6.46-.59L128,214.15,158.12,231a7.91,7.91,0,0,0,3.9,1,8.09,8.09,0,0,0,2.57-.42,112.1,112.1,0,0,0,36.68-20.73,8,8,0,0,0,2.83-6.07l.15-33.65,29.83-17a8,8,0,0,0,3.89-5.4A106.47,106.47,0,0,0,237.94,107.21Zm-15,34.91-28.57,16.25a8,8,0,0,0-3,3c-.58,1-1.19,2.06-1.81,3.06a7.94,7.94,0,0,0-1.22,4.21l-.15,32.25a95.89,95.89,0,0,1-25.37,14.3L134,199.13a8,8,0,0,0-3.91-1h-.19c-1.21,0-2.43,0-3.64,0a8.08,8.08,0,0,0-4.1,1l-28.84,16.1A96,96,0,0,1,67.88,201l-.11-32.2a8,8,0,0,0-1.22-4.22c-.62-1-1.23-2-1.8-3.06a8.09,8.09,0,0,0-3-3.06l-28.6-16.29a90.49,90.49,0,0,1,0-28.26L61.67,97.63a8,8,0,0,0,3-3c.58-1,1.19-2.06,1.81-3.06a7.94,7.94,0,0,0,1.22-4.21l.15-32.25a95.89,95.89,0,0,1,25.37-14.3L122,56.87a8,8,0,0,0,4.1,1c1.21,0,2.43,0,3.64,0a8.08,8.08,0,0,0,4.1-1l28.84-16.1A96,96,0,0,1,188.12,55l.11,32.2a8,8,0,0,0,1.22,4.22c.62,1,1.23,2,1.8,3.06a8.09,8.09,0,0,0,3,3.06l28.6,16.29A90.49,90.49,0,0,1,222.9,142.12Z"/></symbol>
<symbol id="lightning" viewBox="0 0 256 256" fill="currentColor"><path d="M215.79,118.17a8,8,0,0,0-5-5.66L153.18,90.9l14.66-73.33a8,8,0,0,0-13.69-7l-112,120a8,8,0,0,0,3,13l57.63,21.61L88.16,238.43a8,8,0,0,0,13.69,7l112-120A8,8,0,0,0,215.79,118.17ZM109.37,214l10.47-52.38a8,8,0,0,0-5-9.06L62,132.71l84.62-90.66L136.16,94.43a8,8,0,0,0,5,9.06l52.8,19.8Z"/></symbol>
</svg>
